<svg xmlns="http://www.w3.org/2000/svg" viewBox="0 0 24 24" fill="none">
  <path fill-rule="evenodd" clip-rule="evenodd" d="M5.25 12C5.11193 12 5 12.1119 5 12.25C5 12.3881 5.11193 12.5 5.25 12.5H19.25C19.3881 12.5 19.5 12.3881 19.5 12.25C19.5 12.1119 19.3881 12 19.25 12H5.25Z" fill="currentColor"/>
  <path fill-rule="evenodd" clip-rule="evenodd" d="M5.25 7C5.11193 7 5 7.11193 5 7.25C5 7.38807 5.11193 7.5 5.25 7.5H19.25C19.3881 7.5 19.5 7.38806 19.5 7.25C19.5 7.11194 19.3881 7 19.25 7H5.25Z" fill="currentColor"/>
  <path fill-rule="evenodd" clip-rule="evenodd" d="M5.25 17C5.11193 17 5 17.1119 5 17.25C5 17.3881 5.11193 17.5 5.25 17.5H19.25C19.3881 17.5 19.5 17.3881 19.5 17.25C19.5 17.1119 19.3881 17 19.25 17H5.25Z" fill="currentColor"/>
</svg>